<?xml version="1.0" standalone="no"?><!DOCTYPE svg PUBLIC "-//W3C//DTD SVG 1.1//EN" "http://www.w3.org/Graphics/SVG/1.1/DTD/svg11.dtd"><svg t="1494392818111" class="icon" style="" viewBox="0 0 1024 1024" version="1.1" xmlns="http://www.w3.org/2000/svg" p-id="4486" xmlns:xlink="http://www.w3.org/1999/xlink" width="52" height="52"><defs><style type="text/css"></style></defs><path d="M512 330.67022c11.328721 0 20.680686-9.351965 20.680686-20.680686s-9.351965-20.680686-20.680686-20.680686-20.680686 9.351965-20.680686 20.680686S500.671279 330.67022 512 330.67022L512 330.67022z" p-id="4487" fill="#ffffff"></path><path d="M512 275.140421c9.632925 0 18.412935 3.682587 24.654268 10.194846l0 0c6.512259 6.512259 10.20488 15.021342 10.20488 24.654268s-3.682587 18.412935-10.20488 24.654268c-6.231298 6.231298-15.021342 10.20488-24.654268 10.20488s-18.412935-3.973582-24.654268-10.20488l0 0c-6.231298-6.231298-10.20488-15.021342-10.20488-24.654268s3.973582-18.412935 10.20488-24.654268S502.367075 275.140421 512 275.140421L512 275.140421zM516.816463 305.173072c-1.414836-1.133876-2.829672-1.695796-4.816463-1.695796-1.695796 0-3.401627 0.571955-4.535502 1.986791-1.414836 1.133876-1.986791 2.829672-1.986791 4.535502s0.571955 3.401627 1.695796 4.535502l0.28096 0.28096c1.133876 1.133876 2.829672 1.695796 4.535502 1.695796 1.986791 0 3.401627-0.571955 4.816463-1.986791 1.133876-1.133876 1.695796-2.829672 1.695796-4.535502 0-1.986791-0.571955-3.401627-1.695796-4.535502L516.806428 305.173072z" p-id="4488" fill="#ffffff"></path><path d="M496.697697 411.135247c0-7.937129 6.241333-14.168427 14.168427-14.168427 7.646134 0 14.158393 6.231298 14.158393 14.168427l0 323.836864c0 7.656169-6.512259 14.168427-14.158393 14.168427-7.937129 0-14.168427-6.512259-14.168427-14.168427L496.697697 411.135247z" p-id="4489" fill="#ffffff"></path><path d="M512 56.703812c125.79998 0 239.68925 50.994297 321.860108 133.446115 82.441783 82.441783 133.446115 196.060127 133.446115 321.850073s-51.004331 239.68925-133.446115 321.860108c-82.160823 82.441783-196.060127 133.446115-321.860108 133.446115S272.59171 916.291857 190.149927 833.860108C107.698109 751.68925 56.703812 637.79998 56.703812 512S107.698109 272.59171 190.149927 190.149927C272.59171 107.698109 386.20002 56.703812 512 56.703812L512 56.703812zM814.022303 209.977697c-77.354395-77.0634-184.169486-124.947065-302.022303-124.947065-117.862852 0-224.677942 47.883665-302.022303 124.947065-77.0634 77.344361-124.947065 184.159451-124.947065 302.022303 0 117.862852 47.883665 224.667908 124.947065 302.022303 77.344361 77.0634 184.159451 124.937031 302.022303 124.937031 117.862852 0 224.667908-47.873631 302.022303-124.937031 77.0634-77.354395 124.937031-184.169486 124.937031-302.022303C938.959334 394.137148 891.085703 287.322058 814.022303 209.977697L814.022303 209.977697z" p-id="4490" fill="#ffffff"></path></svg>