<?xml version="1.0" standalone="no"?><!DOCTYPE svg PUBLIC "-//W3C//DTD SVG 1.1//EN" "http://www.w3.org/Graphics/SVG/1.1/DTD/svg11.dtd"><svg t="1552362961916" class="icon" style="" viewBox="0 0 1160 1024" version="1.1" xmlns="http://www.w3.org/2000/svg" p-id="4066" xmlns:xlink="http://www.w3.org/1999/xlink" width="226.5625" height="200"><defs><style type="text/css"></style></defs><path d="M87.150592 477.866667L534.570325 67.925333c6.894933-6.144 11.605333-17.749333 11.810134-31.197866C546.380459 16.384 536.072192 0 523.306325 0h-0.682666a17.066667 17.066667 0 0 0-11.810134 5.12L21.546325 453.632l-0.2048 1.365333c-12.0832 11.195733-20.343467 31.607467-21.026133 55.0912a34.679467 34.679467 0 0 0-0.068267 3.413334c0 24.917333 8.465067 46.6944 21.230934 58.709333l489.949866 445.781333c3.413333 3.549867 7.509333 5.7344 11.8784 6.007467 12.765867 0 23.074133-16.384 23.074134-36.4544-0.136533-13.380267-4.778667-25.053867-11.741867-31.402667L87.150592 546.133333H1126.647125a34.133333 34.133333 0 1 0 0-68.266666H87.150592z" p-id="4067" fill="#999999"></path></svg>